<?xml version="1.0" encoding="UTF-8"?>
<svg version="1.1" xmlns="http://www.w3.org/2000/svg" width="300" height="140" viewBox="-50 0 300 195" preserveAspectRatio="xMidYMid meet">
<path d="M0 0 C6.13832203 3.96630039 11.27772395 8.65023497 15 15 C15 15.66 15 16.32 15 17 C15.58990723 16.7841626 16.17981445 16.5683252 16.78759766 16.34594727 C23.49571007 14.08786804 29.34084801 13.68388772 36.375 13.9375 C38.2992122 13.99755178 40.22372829 14.04869479 42.1484375 14.08984375 C42.98552246 14.11941162 43.82260742 14.14897949 44.68505859 14.17944336 C47.250434 13.98058754 48.74425013 13.18106831 51 12 C54.52467729 12.14686155 56.4525643 12.60051989 59.3125 14.6875 C61.38781227 17.53144644 61.78155829 19.50493264 62 23 C61.814375 23.639375 61.62875 24.27875 61.4375 24.9375 C60.78441875 27.19999919 60.78441875 27.19999919 61.953125 30.1484375 C64.81555259 40.67960765 63.25975156 51.75506653 60 62 C60.75410156 62.27714844 61.50820312 62.55429688 62.28515625 62.83984375 C69.59395687 65.96317294 74.25559429 72.1811142 78 79 C81.12582613 87.09873133 80.73226974 93.73172581 77.328125 101.546875 C73.81845668 108.02943884 68.04163244 113.79158057 62 118 C61.34 118 60.68 118 60 118 C60.2165625 118.680625 60.433125 119.36125 60.65625 120.0625 C63.74687423 130.82245102 65.38639189 143.43391979 60.390625 153.8828125 C56.89800904 159.20022219 51.71635191 163.61581985 45.5859375 165.56640625 C35.27055253 167.29602518 24.82771027 166.56599422 15 163 C14.76539062 163.72058594 14.53078125 164.44117188 14.2890625 165.18359375 C10.67094436 173.08863368 2.91036282 178.86313198 -5 182 C-12.34318234 184.11242232 -19.17367244 183.27385097 -26 180 C-32.17665861 176.13447524 -37.29565861 171.31917061 -41 165 C-41 164.34 -41 163.68 -41 163 C-41.680625 163.2165625 -42.36125 163.433125 -43.0625 163.65625 C-53.95728749 166.78560385 -66.6023914 168.39135261 -77 163 C-82.62563178 159.86262843 -85.61492115 156.32617501 -88.08984375 150.3828125 C-89.2417647 146.10142391 -89.3403997 142.16381956 -89.3125 137.75 C-89.31121094 136.91041748 -89.30992188 136.07083496 -89.30859375 135.20581055 C-89.21405501 129.1015622 -88.44141284 123.65303331 -86 118 C-86.680625 117.79375 -87.36125 117.5875 -88.0625 117.375 C-96.20360077 113.56427198 -100.83782099 106.7835099 -105 99 C-107.39020699 91.7602979 -106.44746283 84.31413026 -103.39453125 77.453125 C-99.40662644 70.43798712 -93.70927082 65.33307074 -87 61 C-87.33 58.03 -87.66 55.06 -88 52 C-88.7425 51.9175 -89.485 51.835 -90.25 51.75 C-93.71015935 50.80632018 -94.95374685 49.955699 -97 47 C-97.45478628 43.81649605 -97.7058706 42.01490495 -97 39 C-94.46546343 35.78045355 -92.88702695 34.29567565 -89 33 C-88.27252873 31.04905433 -87.54985604 29.09597694 -86.8671875 27.12890625 C-84.33409465 20.9102774 -79.75655396 17.82594467 -74 15 C-69.63040103 13.66707815 -65.34341574 13.81600962 -60.8125 13.8125 C-59.99974609 13.80025391 -59.18699219 13.78800781 -58.34960938 13.77539062 C-52.6559064 13.76180184 -47.50003085 14.54043686 -42 16 C-41.5153125 15.34773438 -41.030625 14.69546875 -40.53125 14.0234375 C-30.61175797 1.08994597 -16.31691102 -8.96953004 0 0 Z M-35.3828125 13.6953125 C-37.28719657 15.94004454 -37.28719657 15.94004454 -37 19 C-35.28103516 19.79664063 -35.28103516 19.79664063 -33.52734375 20.609375 C-31.9973224 21.32275919 -30.4673786 22.03630973 -28.9375 22.75 C-28.18533203 23.09804688 -27.43316406 23.44609375 -26.65820312 23.8046875 C-25.91376953 24.15273438 -25.16933594 24.50078125 -24.40234375 24.859375 C-23.65227051 25.20266846 -22.90219727 25.54596191 -22.12939453 25.8996582 C-20 27 -20 27 -18.25732422 28.34057617 C-16.41916039 29.85584291 -16.41916039 29.85584291 -13 31 C-9.06922169 29.88026 -5.74620733 27.89519216 -2.25 25.8125 C-0.38078575 24.75548867 1.48898149 23.69945447 3.359375 22.64453125 C4.17889648 22.16346924 4.99841797 21.68240723 5.84277344 21.18676758 C8 20 8 20 11 19 C8.72927159 11.50659624 3.3624321 6.83521597 -3.16796875 2.9453125 C-15.96147152 -3.65602582 -27.04005717 4.19785055 -35.3828125 13.6953125 Z M-81 25 C-82.67476745 27.62301606 -83.80245126 30.10592387 -85 33 C-84.34 33.99 -83.68 34.98 -83 36 C-82.34 36 -81.68 36 -81 36 C-79.55006391 44.01832126 -79.55006391 44.01832126 -81.375 48 C-83 50 -83 50 -84 51 C-83.8981629 52.91424457 -83.8981629 52.91424457 -83.5625 55.0625 C-83.376875 56.361875 -83.19125 57.66125 -83 59 C-82.40574219 58.76812988 -81.81148437 58.53625977 -81.19921875 58.29736328 C-78.46804701 57.23494597 -75.73407011 56.17993493 -73 55.125 C-72.06542969 54.76019531 -71.13085938 54.39539063 -70.16796875 54.01953125 C-65.92548693 52.38780747 -61.97147152 50.94114818 -57.48046875 50.19921875 C-53.70882494 49.34473994 -53.70882494 49.34473994 -52.30078125 45.76171875 C-51.9384281 44.41205789 -51.61060325 43.0527907 -51.3125 41.6875 C-50.93366467 40.24244108 -50.55077965 38.79843838 -50.1640625 37.35546875 C-49.9774707 36.6289209 -49.79087891 35.90237305 -49.59863281 35.15380859 C-48.15519954 29.96050991 -46.00972553 24.99438174 -44 20 C-46.39469729 19.49395076 -48.79051717 18.99500483 -51.1875 18.5 C-51.86103516 18.35691406 -52.53457031 18.21382812 -53.22851562 18.06640625 C-63.68905922 15.92327049 -73.31025061 17.01515864 -81 25 Z M18 20 C19.75284893 25.40180849 21.75214719 30.69122944 23.7890625 35.99023438 C24.04429687 36.66248047 24.29953125 37.33472656 24.5625 38.02734375 C24.81692871 38.68798828 25.07135742 39.34863281 25.33349609 40.02929688 C26 42 26 42 26.7265625 45.83984375 C27.71694141 49.31379472 27.71694141 49.31379472 31.2734375 50.6015625 C32.63338968 50.97049638 34.00148651 51.31028929 35.375 51.625 C36.82162755 52.01204494 38.26693971 52.40403768 39.7109375 52.80078125 C40.43120117 52.99365723 41.15146484 53.1865332 41.89355469 53.38525391 C46.75958104 54.80535756 51.37639226 56.94214428 56 59 C58.52487099 53.10863435 59.30099489 48.0268176 59.3125 41.6875 C59.31765625 40.99398437 59.3228125 40.30046875 59.328125 39.5859375 C59.298851 34.43059942 59.298851 34.43059942 57 30 C54.90929617 29.4104937 54.90929617 29.4104937 52.5625 29.4375 C48.44343844 29.32213913 48.44343844 29.32213913 46.2578125 27.734375 C44.07699195 24.72728082 44.29863382 21.6433326 44 18 C34.74854733 16.59364364 27.01880517 17.63856728 18 20 Z M-40 22 C-44.35038852 30.16442777 -48.04501554 37.87673918 -50 47 C-48.14523183 46.88426734 -46.29118726 46.75691885 -44.4375 46.625 C-43.40496094 46.55539063 -42.37242188 46.48578125 -41.30859375 46.4140625 C-34.06255791 45.50723865 -29.27057974 43.18777136 -23.5625 38.875 C-22.92634766 38.40707031 -22.29019531 37.93914063 -21.63476562 37.45703125 C-20.0831409 36.31372882 -18.54059735 35.15811895 -17 34 C-19.05448353 31.77946971 -20.94818116 30.33786247 -23.65234375 28.9921875 C-24.34650391 28.64542969 -25.04066406 28.29867187 -25.75585938 27.94140625 C-26.47580078 27.58949219 -27.19574219 27.23757812 -27.9375 26.875 C-28.65357422 26.51535156 -29.36964844 26.15570313 -30.10742188 25.78515625 C-33.39685892 24.15720502 -36.40113562 22.79819753 -40 22 Z M8.12890625 23.51171875 C7.01999023 24.03088867 7.01999023 24.03088867 5.88867188 24.56054688 C5.12103516 24.93244141 4.35339844 25.30433594 3.5625 25.6875 C2.79873047 26.04005859 2.03496094 26.39261719 1.24804688 26.75585938 C-2.82930381 28.696948 -6.02867067 30.48986962 -9 34 C-7.06324055 35.45932573 -5.12562712 36.91749264 -3.1875 38.375 C-2.64029297 38.7875 -2.09308594 39.2 -1.52929688 39.625 C3.86555681 43.81810182 3.86555681 43.81810182 10.23046875 45.8515625 C11.03291016 45.98046875 11.83535156 46.109375 12.66210938 46.2421875 C13.49548828 46.36851563 14.32886719 46.49484375 15.1875 46.625 C16.03248047 46.7590625 16.87746094 46.893125 17.74804688 47.03125 C19.83099945 47.36075662 21.91537427 47.68124989 24 48 C22.50542629 41.57595509 20.53584526 35.45506931 18 29.375 C17.505 28.18648437 17.01 26.99796875 16.5 25.7734375 C14.19850831 21.51807526 12.13527194 21.63143499 8.12890625 23.51171875 Z M-19.125 39.4375 C-20.03507812 40.07558594 -20.94515625 40.71367188 -21.8828125 41.37109375 C-22.58148438 41.90863281 -23.28015625 42.44617187 -24 43 C-24 43.33 -24 43.66 -24 44 C-16.74 44 -9.48 44 -2 44 C-5.28453 40.71547 -8.08003309 38.38606681 -12 36 C-15.04780919 36 -16.66983164 37.69929676 -19.125 39.4375 Z M-42 59 C-43.82874965 60.84025371 -45.69491807 62.63621653 -47.5625 64.4375 C-49.06510998 65.9351753 -50.54744393 67.45373064 -52 69 C-52.78189697 69.83192871 -52.78189697 69.83192871 -53.57958984 70.68066406 C-56.7873854 75.91855642 -55.97552235 83.27497219 -56.0625 89.3125 C-56.07424255 90.08633026 -56.08598511 90.86016052 -56.0980835 91.65744019 C-56.13652219 99.9915787 -56.1667718 107.6462653 -50.49145508 114.29321289 C-48.05680619 116.60111354 -45.5535888 118.69499706 -42.83007812 120.65380859 C-41.0733922 121.94601326 -39.54190965 123.30893189 -37.984375 124.83203125 C-29.87429156 132.73572035 -24.15570922 132.18191148 -13.0625 132.1875 C-11.78697266 132.19974609 -10.51144531 132.21199219 -9.19726562 132.22460938 C-7.35358398 132.22750977 -7.35358398 132.22750977 -5.47265625 132.23046875 C-3.79055054 132.23663208 -3.79055054 132.23663208 -2.07446289 132.24291992 C2.80361814 131.85749225 5.98924335 130.3513597 9.5234375 127.0234375 C10.14911621 126.43868652 10.77479492 125.85393555 11.41943359 125.25146484 C12.06477051 124.63223145 12.71010742 124.01299805 13.375 123.375 C14.03967285 122.74416504 14.7043457 122.11333008 15.38916016 121.46337891 C25.22725513 112.85455349 25.22725513 112.85455349 29.14526367 101.05493164 C29.16977098 97.39069362 29.18565399 93.72682626 29.1875 90.0625 C29.19974609 88.78697266 29.21199219 87.51144531 29.22460938 86.19726562 C29.22654297 84.96814453 29.22847656 83.73902344 29.23046875 82.47265625 C29.23457764 81.35125244 29.23868652 80.22984863 29.24291992 79.07446289 C28.7632204 73.00325078 26.19956694 69.75663575 22.125 65.375 C21.26132813 64.43398437 20.39765625 63.49296875 19.5078125 62.5234375 C18.72325684 61.74299072 18.72325684 61.74299072 17.92285156 60.94677734 C16.40879205 59.41387859 14.96012943 57.81637897 13.53808594 56.19775391 C8.2221457 50.4381649 3.81078766 47.05087349 -4.1875 46.5390625 C-6.38922584 46.48366713 -8.57113692 46.49661164 -10.77246094 46.56591797 C-13.00506991 46.62513447 -15.2134362 46.56636198 -17.4453125 46.49609375 C-29.15310591 46.43536252 -34.31319342 50.36119458 -42 59 Z M-51 52 C-52.74945907 56.03136221 -53.26489214 59.62927973 -53 64 C-48.10565787 59.90473413 -43.29279666 55.73642915 -39 51 C-39 50.67 -39 50.34 -39 50 C-43.37072027 49.73510786 -46.96863779 50.25054093 -51 52 Z M12 50 C12.66 50.66 13.32 51.32 14 52 C18.33333333 56.33333333 22.66666667 60.66666667 27 65 C26.85851011 63.3954444 26.71164314 61.79136233 26.5625 60.1875 C26.48128906 59.29417969 26.40007812 58.40085937 26.31640625 57.48046875 C26.06510233 54.87256441 26.06510233 54.87256441 25 52 C20.56971812 50.34950283 16.70949382 49.77026859 12 50 Z M29 53 C30.10127936 66.93357795 33.84229068 75.45852815 43 86 C46.75867785 81.77572017 48.9436608 77.28280123 51.25 72.1875 C51.61351562 71.39923828 51.97703125 70.61097656 52.3515625 69.79882812 C53.24057731 67.86873018 54.12115087 65.93474795 55 64 C48.78557745 57.33970479 37.74226564 54.50728718 29 53 Z M-65.6875 55.75 C-66.38294922 56.00265625 -67.07839844 56.2553125 -67.79492188 56.515625 C-72.49979517 58.2728139 -76.69826765 60.40655717 -81 63 C-78.66222612 71.47443032 -74.4826184 78.5147726 -70 86 C-69.42507812 85.26910156 -68.85015625 84.53820312 -68.2578125 83.78515625 C-66.86345158 82.0651228 -65.42755146 80.37678716 -63.9296875 78.74609375 C-56.82634922 70.76496651 -55.87666202 63.42205929 -56 53 C-59.41824714 53 -62.51913376 54.56150554 -65.6875 55.75 Z M58 65 C57.63648438 65.89460938 57.27296875 66.78921875 56.8984375 67.7109375 C54.05865078 74.54098864 51.2034285 80.73926901 46.90625 86.81640625 C45.75023395 88.98099836 45.75023395 88.98099836 46.59375 91.27734375 C47.28984375 92.62505859 47.28984375 92.62505859 48 94 C48.62505868 95.27080447 49.2500533 96.54164045 49.875 97.8125 C50.5813306 99.20934784 51.2897125 100.60516005 52 102 C54.17796667 106.27702151 56.3120573 110.49881947 58 115 C66.33090528 110.00145683 73.30155697 103.57947275 76 94 C77.17067183 87.6588609 75.1801203 82.46429339 72 77 C68.43898087 71.87911082 64.21217303 68.37258255 59 65 C58.67 65 58.34 65 58 65 Z M-94.546875 72.37109375 C-99.40102429 77.57307221 -102.20041832 82.96017162 -102.5625 90.125 C-102.09348572 98.22500333 -97.68966344 104.46449001 -92 110 C-88.40738646 112.99124553 -88.40738646 112.99124553 -84 114 C-83.74307373 113.45585449 -83.48614746 112.91170898 -83.22143555 112.35107422 C-82.04415214 109.85872046 -80.8658342 107.36685713 -79.6875 104.875 C-79.28337891 104.0190625 -78.87925781 103.163125 -78.46289062 102.28125 C-78.06650391 101.44335938 -77.67011719 100.60546875 -77.26171875 99.7421875 C-76.88007568 98.91968506 -76.49843262 98.09718262 -76.10522461 97.24975586 C-75 95 -75 95 -72.984375 91.80859375 C-71.62024445 88.89781998 -71.62024445 88.89781998 -73.31640625 85.66796875 C-74.04259209 84.49359009 -74.79263632 83.33372031 -75.5625 82.1875 C-76.32747146 80.96165925 -77.08920112 79.73378946 -77.84765625 78.50390625 C-78.22035645 77.90980957 -78.59305664 77.31571289 -78.97705078 76.70361328 C-81.02371262 73.29511535 -82.48305363 69.66595372 -84 66 C-88.80618954 66 -91.15138222 69.19898865 -94.546875 72.37109375 Z M-60 79 C-61.28282906 80.51875164 -62.50177651 82.09178175 -63.6875 83.6875 C-64.35136719 84.55761719 -65.01523438 85.42773438 -65.69921875 86.32421875 C-67.31207713 88.91845297 -67.31207713 88.91845297 -66.3671875 91.59375 C-65.13881507 93.75568548 -63.90286717 95.80472826 -62.4375 97.8125 C-62.00308594 98.41707031 -61.56867187 99.02164063 -61.12109375 99.64453125 C-60.56615234 100.31548828 -60.56615234 100.31548828 -60 101 C-59.67 101 -59.34 101 -59 101 C-59 93.74 -59 86.48 -59 79 C-59.33 79 -59.66 79 -60 79 Z M33 79 C33 85.93 33 92.86 33 100 C37.48680073 95.85800842 37.48680073 95.85800842 41 91 C40.02555187 86.49317742 36.91217398 82.52099084 34 79 C33.67 79 33.34 79 33 79 Z M-70 94 C-74.39613781 100.41335294 -78.52861804 107.61044499 -81 115 C-80.29740471 118.24781805 -80.29740471 118.24781805 -77.2265625 119.5 C-76.03804687 119.995 -74.84953125 120.49 -73.625 121 C-73.00028809 121.26055176 -72.37557617 121.52110352 -71.73193359 121.78955078 C-66.27917128 124.00755306 -60.73421852 125.66591651 -55 127 C-56.08990991 113.21027021 -59.66954849 104.30300672 -69 94 C-69.33 94 -69.66 94 -70 94 Z M43 94 C41.30514681 96.01469321 39.67421473 98.04536809 38.0625 100.125 C37.60681641 100.69476563 37.15113281 101.26453125 36.68164062 101.8515625 C32.17444391 107.6587852 30.83631183 113.09649613 29.875 120.375 C29.70742187 121.62023437 29.53984375 122.86546875 29.3671875 124.1484375 C29.18542969 125.55996094 29.18542969 125.55996094 29 127 C38.37155853 124.64324712 46.5121129 121.66367423 55 117 C52.11561304 108.85735008 49.04686338 101.07519138 44 94 C43.67 94 43.34 94 43 94 Z M-53 115 C-52.85915204 116.79206547 -52.71216299 118.58364917 -52.5625 120.375 C-52.44068359 121.87160156 -52.44068359 121.87160156 -52.31640625 123.3984375 C-52.15034374 125.97927613 -52.15034374 125.97927613 -51 128 C-46.55499776 129.33350067 -42.6681169 130.29175731 -38 130 C-38.66 129.34 -39.32 128.68 -40 128 C-44.33333333 123.66666667 -48.66666667 119.33333333 -53 115 Z M26 115 C24.74607316 116.37363346 23.52233279 117.77487619 22.3125 119.1875 C19.09299415 122.87107877 15.80992692 125.95205846 12 129 C12 129.33 12 129.66 12 130 C13.6045556 129.85851011 15.20863767 129.71164314 16.8125 129.5625 C18.15248047 129.44068359 18.15248047 129.44068359 19.51953125 129.31640625 C22.12743559 129.06510233 22.12743559 129.06510233 25 128 C26.4053516 123.56204759 27.29241839 119.67869431 27 115 C26.67 115 26.34 115 26 115 Z M-83 121 C-85.80399385 131.70903865 -88.20320203 143.06196024 -82.44140625 153.24609375 C-78.97592932 157.4628936 -74.12743008 160.29085664 -69 162 C-60.13220158 162.51811856 -52.28632403 162.55128173 -44 159 C-44.47050781 157.90042969 -44.94101563 156.80085938 -45.42578125 155.66796875 C-45.72500488 154.95688965 -46.02422852 154.24581055 -46.33251953 153.51318359 C-46.99060798 151.95141216 -47.65708632 150.39315176 -48.33154297 148.83837891 C-50.20804518 144.3958776 -51.22569873 140.71398991 -51.625 135.875 C-52.71170602 132.92059072 -53.36563191 131.37412392 -56.11206055 129.75439453 C-56.94519775 129.46677246 -57.77833496 129.17915039 -58.63671875 128.8828125 C-59.55308105 128.56070801 -60.46944336 128.23860352 -61.41357422 127.90673828 C-65.11528203 126.74890244 -68.84505348 125.7256413 -72.59228516 124.7265625 C-75.58666999 123.82296391 -78.24691225 122.47064783 -81 121 C-81.66 121 -82.32 121 -83 121 Z M48.6875 123.75 C43.76638438 125.95781363 38.99509882 127.59845025 33.75 128.9375 C30.604466 129.77888404 30.604466 129.77888404 28 131 C25.95519933 134.74880123 25.84948389 136.64535502 26.3125 140.8125 C26.94082924 143.0137134 26.94082924 143.0137134 28 145 C28.375 147.8125 28.375 147.8125 28 151 C25.09989671 154.64584413 22.43698984 156.60551748 18 158 C18 158.66 18 159.32 18 160 C26.83178962 162.52336846 38.92516163 164.34320779 47.625 160.4375 C53.06524771 157.04336316 57.11115778 152.12574059 59 146 C59.19026765 143.36982949 59.28457139 140.87495591 59.25 138.25 C59.24419922 137.19135742 59.24419922 137.19135742 59.23828125 136.11132812 C59.15050128 130.8006398 58.45448399 126.09069398 57 121 C53.88982199 121 51.51002588 122.48159015 48.6875 123.75 Z M-50 132 C-48.156964 141.58378719 -44.59091719 149.49736981 -40 158 C-31.9146712 155.06153965 -24.49587162 151.18264937 -17 147 C-27.20574999 136.58454282 -35.82329701 133.49720956 -50 132 Z M-3.8984375 141.84375 C-4.59195313 142.5553125 -5.28546875 143.266875 -6 144 C-6.59039062 144.5878125 -7.18078125 145.175625 -7.7890625 145.78125 C-8.18867187 146.1834375 -8.58828125 146.585625 -9 147 C-1.5147726 151.4826184 5.52556968 155.66222612 14 158 C14.33 157.01 14.66 156.02 15 155 C14.34 155 13.68 155 13 155 C11.76363565 151.29090696 11.44812939 147.85532145 12 144 C14.16333061 140.75500409 15.44412537 140.12827876 19.25 139.25 C20.1575 139.1675 21.065 139.085 22 139 C22.66 136.69 23.32 134.38 24 132 C12.96499557 132 4.2118862 134.31094161 -3.8984375 141.84375 Z M-24 136 C-20.68203043 139.31796957 -18.10403837 141.82234699 -14 144 C-9.4755116 143.20821453 -6.318503 140.00980504 -3 137 C-3 136.67 -3 136.34 -3 136 C-9.93 136 -16.86 136 -24 136 Z M-20.5 152.75 C-26.15462578 156.06816074 -31.7958957 158.82713398 -38 161 C-33.60227532 168.86961259 -28.32751524 174.61962085 -20.0625 178.3125 C-12.76436373 179.95085712 -8.06111506 179.22558388 -1.53515625 175.6953125 C4.02611215 171.97637493 9.2950383 167.21295891 12 161 C10.9378125 160.55269531 9.875625 160.10539063 8.78125 159.64453125 C1.4782398 156.53156058 -5.35555633 153.38533282 -12 149 C-15.26689756 149 -17.76052599 151.11194911 -20.5 152.75 Z " fill="#C8DB68" transform="translate(113,10)"/>
<path d="M0 0 C3.92552249 3.56345974 6.70692349 7.66772797 7.37109375 12.953125 C7.52002799 20.34727212 7.0499211 25.39666289 2 31 C-3.34819589 36.0807861 -8.18557364 37.4918763 -15.44140625 37.30859375 C-21.14185431 36.62105879 -25.36819249 33.96366407 -29.375 29.9375 C-32.87301459 25.46195805 -33.88150458 20.60878331 -34 15 C-33.08937247 8.55398492 -29.99850827 3.163543 -25 -1 C-16.65772482 -5.85337335 -8.0091956 -4.98282016 0 0 Z " fill="#E1F775" transform="translate(113,79)"/>
</svg>
