<?xml version="1.0" standalone="no"?>
<!DOCTYPE svg PUBLIC "-//W3C//DTD SVG 20010904//EN"
 "http://www.w3.org/TR/2001/REC-SVG-20010904/DTD/svg10.dtd">
<svg version="1.0" xmlns="http://www.w3.org/2000/svg"
 width="200.000000pt" height="200.000000pt" viewBox="0 0 200.000000 200.000000"
 preserveAspectRatio="xMidYMid meet">
 <rect width="100%" height="100%" fill="#c5f74f"/>
<g transform="translate(0.000000,200.000000) scale(0.100000,-0.100000)"
fill="#000000" stroke="none">
<path d="M0 1000 l0 -1000 1000 0 1000 0 0 1000 0 1000 -1000 0 -1000 0 0
-1000z m1018 384 c38 -26 27 -61 -69 -230 -124 -215 -124 -216 -162 -212 -22
2 -36 11 -47 31 -17 31 -23 19 114 257 97 170 116 188 164 154z m647 -9 c14
-13 25 -30 25 -37 0 -17 -187 -346 -213 -375 -32 -36 -82 -28 -98 14 -11 28
-6 39 117 250 109 186 121 197 169 148z m-1059 -260 c18 -18 23 -31 18 -47 -8
-28 -191 -348 -212 -370 -23 -27 -68 -23 -88 8 -21 31 -20 32 103 249 111 194
129 210 179 160z m651 -4 c7 -9 13 -23 13 -32 0 -19 -204 -379 -222 -390 -39
-25 -88 3 -88 49 1 34 202 384 227 393 23 9 55 0 70 -20z"/>
</g>
</svg>
